<?xml version="1.0" encoding="utf-8"?>
<!-- Generator: Adobe Illustrator 18.0.0, SVG Export Plug-In . SVG Version: 6.00 Build 0)  -->
<!DOCTYPE svg PUBLIC "-//W3C//DTD SVG 1.1//EN" "http://www.w3.org/Graphics/SVG/1.1/DTD/svg11.dtd">
<svg version="1.1" id="Layer_1" xmlns="http://www.w3.org/2000/svg" xmlns:xlink="http://www.w3.org/1999/xlink" x="0px" y="0px"
	 viewBox="0 0 61.5 62" enable-background="new 0 0 61.5 62" xml:space="preserve">
<g>
	<path d="M58.9,54.5h-1.1v-9.7c0-1.6-1.3-2.9-2.9-2.9h-3.3v-8.4c0-1.6-1.3-2.9-2.9-2.9H46v-7.3c0-1.6-1.3-2.9-2.9-2.9H32.1v-1.1
		c1.9-0.8,7.9-4,8.4-9.1C40.6,8.8,40.1,7.2,39,6c-1.1-1.2-2.5-1.8-4-1.8c-1.4,0-2.7,0.5-3.7,1.4c-1-0.9-2.3-1.4-3.7-1.4h0
		c-1.6,0-3,0.6-4,1.8c-1.1,1.2-1.6,2.8-1.5,4.4c0.5,5.2,6.5,8.3,8.4,9.1v1.1h-5.1c-0.5,0-0.9,0.4-0.9,0.9c0,0.5,0.4,0.9,0.9,0.9
		h17.8c0.6,0,1.1,0.5,1.1,1.1v2.4c-0.3-0.1-0.6-0.4-0.9-0.7C42.8,24.7,42,24,40.5,24c-1.5,0-2.3,0.7-2.9,1.3
		c-0.5,0.5-0.9,0.8-1.7,0.8c-0.8,0-1.2-0.3-1.7-0.8c-0.6-0.6-1.4-1.3-2.9-1.3c-1.5,0-2.3,0.7-2.9,1.3c-0.5,0.5-0.9,0.8-1.7,0.8
		c-0.8,0-1.2-0.3-1.7-0.8C24.3,24.7,23.5,24,22,24c-1.5,0-2.3,0.7-2.9,1.3c-0.3,0.3-0.6,0.5-0.9,0.7v-2.4c0-0.6,0.5-1.1,1.1-1.1h2
		c0.5,0,0.9-0.4,0.9-0.9c0-0.5-0.4-0.9-0.9-0.9h-2c-1.6,0-2.9,1.3-2.9,2.9v7.3h-2.8c-1.6,0-2.9,1.3-2.9,2.9V42H7.5
		c-1.6,0-2.9,1.3-2.9,2.9v9.7h-1c-1,0-1.9,0.8-1.9,1.9v2.3c0,1,0.8,1.9,1.9,1.9h55.3c1,0,1.9-0.8,1.9-1.9v-2.3
		C60.8,55.4,60,54.5,58.9,54.5L58.9,54.5z M23.7,10.2c-0.1-1.1,0.3-2.2,1-3.1c0.7-0.8,1.7-1.2,2.8-1.2h0c1,0,1.9,0.4,2.6,1
		c0.6,0.6,1.6,0.6,2.2,0c0.7-0.6,1.6-1,2.6-1h0c1.1,0,2,0.4,2.8,1.2c0.8,0.8,1.1,1.9,1,3.1c-0.4,4.4-6.1,7.2-7.5,7.8
		C29.8,17.4,24.1,14.6,23.7,10.2L23.7,10.2z M18.2,27.7c1-0.2,1.5-0.7,2-1.2c0.5-0.5,0.9-0.8,1.7-0.8c0.8,0,1.2,0.3,1.7,0.8
		c0.6,0.6,1.4,1.3,2.9,1.3c1.5,0,2.3-0.7,2.9-1.3c0.5-0.5,0.9-0.8,1.7-0.8c0.8,0,1.2,0.3,1.7,0.8c0.6,0.6,1.4,1.3,2.9,1.3
		c1.5,0,2.3-0.7,2.9-1.3c0.5-0.5,0.9-0.8,1.7-0.8c0.8,0,1.2,0.3,1.7,0.8c0.5,0.4,1.1,1,2,1.2v3.1H18.2V27.7z M13.6,32.5h35.2
		c0.6,0,1.1,0.5,1.1,1.1v2.5c-0.4-0.1-0.7-0.4-1-0.7c-0.7-0.6-1.5-1.2-3-1.2c-1.5,0-2.4,0.7-3,1.2c-0.6,0.5-1,0.8-1.9,0.8
		c-0.9,0-1.3-0.3-1.9-0.8c-0.7-0.6-1.5-1.2-3-1.2c-1.5,0-2.4,0.7-3,1.2c-0.6,0.5-1,0.8-1.9,0.8c-0.9,0-1.3-0.3-1.9-0.8
		c-0.7-0.6-1.5-1.2-3-1.2c-1.5,0-2.4,0.7-3,1.2c-0.6,0.5-1,0.8-1.9,0.8c-0.9,0-1.3-0.3-1.9-0.8c-0.7-0.6-1.5-1.2-3-1.2
		c-1.5,0-2.4,0.7-3,1.2c-0.4,0.3-0.6,0.5-1,0.7v-2.5C12.5,33,13,32.5,13.6,32.5L13.6,32.5z M7.5,43.7h34.8c0.5,0,0.9-0.4,0.9-0.9
		c0-0.5-0.4-0.9-0.9-0.9H12.5v-4.2c1-0.2,1.6-0.7,2.1-1.2c0.6-0.5,1-0.8,1.9-0.8c0.9,0,1.3,0.3,1.9,0.8c0.7,0.6,1.5,1.2,3,1.2
		c1.5,0,2.4-0.7,3-1.2c0.6-0.5,1-0.8,1.9-0.8c0.9,0,1.3,0.3,1.9,0.8c0.7,0.6,1.5,1.2,3,1.2c1.5,0,2.4-0.7,3-1.2
		c0.6-0.5,1-0.8,1.9-0.8c0.9,0,1.3,0.3,1.9,0.8c0.7,0.6,1.5,1.2,3,1.2c1.5,0,2.4-0.7,3-1.2c0.6-0.5,1-0.8,1.9-0.8
		c0.9,0,1.3,0.3,1.9,0.8c0.5,0.4,1.1,1,2.1,1.2V42h-3.7c-0.5,0-0.9,0.4-0.9,0.9c0,0.5,0.4,0.9,0.9,0.9H55c0.6,0,1.1,0.5,1.1,1.1v2.5
		c-0.4-0.1-0.7-0.4-1.1-0.7c-0.7-0.5-1.5-1.2-3.1-1.2c-1.6,0-2.4,0.7-3.1,1.2c-0.6,0.5-1.1,0.8-2,0.8c-1,0-1.4-0.4-2-0.8
		c-0.7-0.5-1.5-1.2-3.1-1.2c-1.6,0-2.4,0.7-3.1,1.2c-0.6,0.5-1.1,0.8-2,0.8c-1,0-1.4-0.4-2-0.8c-0.7-0.5-1.5-1.2-3.1-1.2
		c-1.6,0-2.4,0.7-3.1,1.2c-0.6,0.5-1.1,0.8-2,0.8c-1,0-1.4-0.4-2-0.8c-0.7-0.5-1.5-1.2-3.1-1.2c-1.6,0-2.4,0.7-3.1,1.2
		c-0.6,0.5-1.1,0.8-2,0.8c-1,0-1.4-0.4-2-0.8c-0.7-0.5-1.5-1.2-3.1-1.2c-1.6,0-2.4,0.7-3.1,1.2c-0.4,0.3-0.7,0.6-1.2,0.7v-2.5
		C6.4,44.2,6.9,43.7,7.5,43.7L7.5,43.7z M6.4,49.1c1-0.2,1.7-0.7,2.2-1.2c0.6-0.5,1.1-0.8,2-0.8c1,0,1.4,0.4,2,0.8
		c0.7,0.5,1.5,1.2,3.1,1.2c1.6,0,2.4-0.7,3.1-1.2c0.6-0.5,1.1-0.8,2-0.8c1,0,1.4,0.4,2,0.8c0.7,0.5,1.5,1.2,3.1,1.2
		c1.6,0,2.4-0.7,3.1-1.2c0.6-0.5,1.1-0.8,2-0.8c1,0,1.4,0.4,2,0.8c0.7,0.5,1.5,1.2,3.1,1.2s2.4-0.7,3.1-1.2c0.6-0.5,1.1-0.8,2-0.8
		c1,0,1.4,0.4,2,0.8c0.7,0.5,1.5,1.2,3.1,1.2c1.6,0,2.4-0.7,3.1-1.2c0.6-0.5,1.1-0.8,2-0.8c1,0,1.4,0.4,2,0.8
		c0.5,0.4,1.2,0.9,2.2,1.1v5.4H6.4V49.1z M59.1,58.7c0,0.1-0.1,0.1-0.1,0.1H3.6c-0.1,0-0.1-0.1-0.1-0.1v-2.3c0-0.1,0.1-0.1,0.1-0.1
		h55.3c0.1,0,0.1,0.1,0.1,0.1V58.7z M59.1,58.7"/>
	<path d="M34.6,7.2c-1.5,0-2.6,0.9-3.3,1.7c-0.7-0.8-1.8-1.7-3.3-1.7c-1.5,0-2.8,1.2-2.8,2.8c0,1.2,0.5,3,3.1,4.9
		c0.9,0.7,1.9,1.2,2.5,1.5c0.1,0.1,0.3,0.1,0.5,0.1c0.2,0,0.3,0,0.5-0.1c0.6-0.3,1.6-0.8,2.5-1.5c2.6-2,3.1-3.8,3.1-4.9
		C37.4,8.4,36.1,7.2,34.6,7.2L34.6,7.2z M33.2,13.5c-0.7,0.5-1.4,0.9-1.9,1.2c-0.5-0.3-1.2-0.7-1.9-1.2c-1.6-1.2-2.5-2.5-2.5-3.6
		c0-0.6,0.5-1.1,1.1-1.1c1.1,0,1.9,0.9,2.4,1.5c0,0,0,0,0,0c0.2,0.3,0.6,0.5,1,0.5c0.4,0,0.7-0.2,1-0.5c0,0,0,0,0,0
		c0.4-0.5,1.3-1.5,2.4-1.5c0.6,0,1.1,0.5,1.1,1.1C35.6,11,34.8,12.3,33.2,13.5L33.2,13.5z M33.2,13.5"/>
</g>
</svg>
