<?xml version="1.0" encoding="iso-8859-1"?>
<!-- Generator: Adobe Illustrator 21.1.0, SVG Export Plug-In . SVG Version: 6.00 Build 0)  -->
<svg version="1.1" id="Layer_1" xmlns="http://www.w3.org/2000/svg" xmlns:xlink="http://www.w3.org/1999/xlink" x="0px" y="0px"
	 viewBox="0 0 100.355 100.352" style="enable-background:new 0 0 100.355 100.352;" xml:space="preserve">
<g>
	<path d="M49.998,6.566c-16.658,0-30.211,13.555-30.211,30.217c0,5.555,1.544,10.999,4.47,15.768
		c0.031,0.081,0.069,0.161,0.115,0.237l23.854,39.914c0.269,0.449,0.751,0.726,1.274,0.73c0.004,0,0.009,0,0.013,0
		c0.518,0,1-0.268,1.274-0.708l24.825-39.914c0.054-0.086,0.098-0.177,0.132-0.271c2.926-4.768,4.471-10.209,4.471-15.757
		C80.215,20.121,66.659,6.566,49.998,6.566z M73.031,51.221c-0.055,0.088-0.1,0.18-0.134,0.275L49.539,89.052l-22.435-37.54
		c-0.036-0.101-0.083-0.198-0.141-0.291c-2.732-4.353-4.176-9.345-4.176-14.438c0-15.007,12.207-27.217,27.211-27.217
		c15.008,0,27.217,12.209,27.217,27.217C77.215,41.874,75.769,46.866,73.031,51.221z"/>
	<path d="M58.047,25.202c0,0-0.001,0-0.002,0c-2.552,0-4.95,0.994-6.753,2.799c-0.495,0.496-0.929,1.036-1.297,1.612
		c-1.699-2.651-4.669-4.412-8.043-4.412c-5.268,0-9.553,4.286-9.553,9.553c0,2.028,0.655,3.984,1.928,5.704L48.827,58.57
		c0.285,0.355,0.715,0.562,1.171,0.562c0,0,0.001,0,0.001,0c0.456,0,0.887-0.208,1.171-0.564l14.811-18.562
		c0.031-0.04,0.061-0.08,0.088-0.123c1.001-1.552,1.53-3.326,1.53-5.128C67.6,29.488,63.314,25.202,58.047,25.202z M63.587,38.197
		L49.996,55.23L36.703,38.629c-0.854-1.154-1.305-2.494-1.305-3.875c0-3.613,2.94-6.553,6.553-6.553c3.61,0,6.547,2.94,6.547,6.553
		c0,0.829,0.671,1.5,1.5,1.5s1.5-0.671,1.5-1.5c0-1.75,0.681-3.396,1.917-4.633c1.236-1.238,2.88-1.919,4.63-1.919
		c0.001,0,0.002,0,0.002,0c3.613,0,6.553,2.94,6.553,6.553C64.6,35.956,64.25,37.145,63.587,38.197z"/>
</g>
</svg>
