<?xml version="1.0" encoding="iso-8859-1"?>
<!-- Generator: Adobe Illustrator 21.1.0, SVG Export Plug-In . SVG Version: 6.00 Build 0)  -->
<svg version="1.1" id="Layer_1" xmlns="http://www.w3.org/2000/svg" xmlns:xlink="http://www.w3.org/1999/xlink" x="0px" y="0px"
	 viewBox="0 0 100.353 100.352" style="enable-background:new 0 0 100.353 100.352;" xml:space="preserve">
<g>
	<path d="M24.35,57.596l6.265-6.105c0.409-0.398,0.556-0.994,0.38-1.538c-0.177-0.543-0.646-0.939-1.211-1.021l-8.657-1.259
		l-3.873-7.841c-0.252-0.512-0.774-0.836-1.344-0.836c0,0,0,0,0,0c-0.57,0-1.092,0.324-1.345,0.835l-3.877,7.842l-8.653,1.259
		C1.469,49.014,1,49.41,0.823,49.953c-0.176,0.542-0.029,1.139,0.379,1.538l6.262,6.105L5.99,66.218
		c-0.096,0.562,0.135,1.131,0.597,1.467c0.463,0.336,1.074,0.381,1.58,0.114l7.742-4.071l7.742,4.071
		c0.22,0.115,0.459,0.172,0.698,0.172c0.311,0,0.62-0.097,0.882-0.286c0.462-0.336,0.693-0.904,0.597-1.468L24.35,57.596z
		 M21.691,55.998c-0.354,0.345-0.515,0.841-0.432,1.328l1.098,6.402l-5.75-3.023c-0.438-0.229-0.959-0.229-1.396,0L9.459,63.73
		l1.095-6.404c0.083-0.486-0.078-0.982-0.431-1.327l-4.651-4.535l6.427-0.935c0.488-0.071,0.91-0.377,1.129-0.82l2.881-5.827
		l2.877,5.826c0.218,0.443,0.641,0.749,1.129,0.82l6.429,0.935L21.691,55.998z"/>
	<path d="M29.889,56.924c-0.806-0.185-1.609,0.334-1.786,1.144s0.335,1.609,1.145,1.786c0.205,0.045,20.545,4.706,26.985,23.953
		c0.21,0.628,0.795,1.024,1.423,1.024c0.157,0,0.318-0.024,0.476-0.077c0.786-0.264,1.21-1.113,0.947-1.898
		C52.103,62.01,30.792,57.121,29.889,56.924z"/>
	<path d="M63.321,72.9c-14.912-9.579-9.515-35.533-9.459-35.794c0.175-0.81-0.34-1.608-1.149-1.783
		c-0.801-0.172-1.606,0.338-1.782,1.148c-0.062,0.285-1.506,7.076-0.967,15.252C50.69,62.763,54.749,70.958,61.7,75.423
		c0.251,0.161,0.531,0.238,0.81,0.238c0.493,0,0.977-0.243,1.263-0.689C64.221,74.275,64.019,73.347,63.321,72.9z"/>
	<path d="M47.879,33.145l5.811-0.78l3.928,4.345c0.288,0.319,0.694,0.494,1.112,0.494c0.137,0,0.274-0.019,0.41-0.057
		c0.549-0.156,0.962-0.61,1.065-1.172l1.058-5.763l5.354-2.404c0.521-0.234,0.864-0.743,0.885-1.313
		c0.021-0.571-0.284-1.104-0.786-1.375l-5.158-2.784l-0.629-5.83c-0.062-0.567-0.439-1.051-0.976-1.248
		c-0.537-0.198-1.137-0.072-1.551,0.323l-4.245,4.045l-5.738-1.205c-0.558-0.12-1.136,0.093-1.488,0.542
		c-0.353,0.449-0.419,1.06-0.172,1.575l2.534,5.286l-2.914,5.09c-0.284,0.495-0.261,1.108,0.057,1.583
		C46.754,32.969,47.316,33.219,47.879,33.145z M52.338,25.237l-1.561-3.255l3.535,0.742c0.483,0.101,0.985-0.042,1.344-0.382
		l2.616-2.493l0.388,3.593c0.053,0.491,0.344,0.924,0.778,1.159l3.178,1.715l-3.3,1.482c-0.45,0.202-0.772,0.612-0.861,1.097
		l-0.651,3.547l-2.418-2.675c-0.286-0.317-0.691-0.494-1.112-0.494c-0.066,0-0.133,0.004-0.199,0.013l-3.583,0.481l1.795-3.137
		C52.531,26.202,52.551,25.681,52.338,25.237z"/>
	<path d="M99.099,37.814c-0.25-0.513-0.771-0.84-1.341-0.843l-4.043-0.02l-2.267-3.338c-0.321-0.472-0.882-0.718-1.448-0.643
		c-0.565,0.079-1.037,0.472-1.217,1.014l-1.271,3.834l-3.881,1.135c-0.548,0.16-0.958,0.618-1.057,1.18
		c-0.099,0.562,0.131,1.132,0.591,1.469l3.258,2.387l-0.127,4.042c-0.019,0.571,0.289,1.102,0.793,1.371
		c0.222,0.118,0.464,0.177,0.706,0.177c0.308,0,0.614-0.095,0.874-0.281l3.283-2.355l3.8,1.364c0.536,0.193,1.137,0.065,1.549-0.333
		c0.41-0.396,0.561-0.992,0.387-1.536l-1.23-3.853l2.479-3.195C99.285,38.939,99.349,38.328,99.099,37.814z M93.359,42.746
		l0.546,1.71l-1.681-0.603c-0.464-0.167-0.98-0.095-1.381,0.193l-1.454,1.042l0.057-1.794c0.016-0.495-0.214-0.965-0.612-1.257
		l-1.443-1.058l1.718-0.503c0.473-0.138,0.848-0.5,1.003-0.967l0.562-1.696l1.003,1.477c0.278,0.409,0.739,0.655,1.233,0.657
		l1.79,0.009l-1.098,1.415C93.3,41.761,93.209,42.276,93.359,42.746z"/>
	<path d="M80.879,44.755c-0.263-0.023-6.645-0.493-11.8,4.25c-4.131,3.802-6.226,9.757-6.226,17.702c0,0.828,0.672,1.5,1.5,1.5
		s1.5-0.672,1.5-1.5c0-7.049,1.758-12.251,5.225-15.464c4.166-3.861,9.502-3.5,9.558-3.498c0.836,0.073,1.545-0.547,1.614-1.371
		C82.318,45.549,81.705,44.823,80.879,44.755z"/>
</g>
</svg>
