<?xml version="1.0" encoding="iso-8859-1"?>
<!-- Generator: Adobe Illustrator 21.1.0, SVG Export Plug-In . SVG Version: 6.00 Build 0)  -->
<svg version="1.1" id="Layer_1" xmlns="http://www.w3.org/2000/svg" xmlns:xlink="http://www.w3.org/1999/xlink" x="0px" y="0px"
	 viewBox="0 0 100.355 100.352" style="enable-background:new 0 0 100.355 100.352;" xml:space="preserve">
<path d="M85.501,67.965h-8.456V47.557c0-0.829-0.671-1.5-1.5-1.5h-7.428V27.353c0-0.829-0.671-1.5-1.5-1.5H51.931l8.071-9.699
	c0.041-0.049,0.079-0.101,0.113-0.155c0.654-1.029,0.999-2.2,0.999-3.385c0-3.477-2.828-6.305-6.305-6.305
	c-1.924,0-3.65,0.865-4.808,2.227c-1.157-1.362-2.882-2.227-4.805-2.227c-3.479,0-6.308,2.828-6.308,6.305
	c0,1.339,0.431,2.632,1.263,3.763l7.26,9.477H33.384c-0.829,0-1.5,0.671-1.5,1.5v18.704H24.46c-0.829,0-1.5,0.671-1.5,1.5v20.408
	h-8.459c-0.019,0-0.036,0.005-0.055,0.005c-0.052,0.002-0.102,0.008-0.153,0.015c-0.048,0.007-0.096,0.013-0.143,0.025
	c-0.045,0.011-0.089,0.026-0.133,0.041c-0.05,0.017-0.099,0.034-0.146,0.056c-0.039,0.018-0.076,0.04-0.114,0.062
	c-0.049,0.028-0.096,0.057-0.141,0.09c-0.014,0.01-0.029,0.017-0.043,0.027c-0.022,0.017-0.038,0.038-0.058,0.056
	c-0.041,0.036-0.08,0.073-0.117,0.113c-0.032,0.035-0.061,0.07-0.089,0.107c-0.03,0.04-0.059,0.08-0.085,0.123
	c-0.025,0.041-0.047,0.083-0.068,0.125c-0.021,0.044-0.041,0.089-0.058,0.135c-0.017,0.046-0.031,0.092-0.043,0.138
	s-0.023,0.092-0.031,0.14c-0.008,0.052-0.013,0.104-0.016,0.157C13.007,69.409,13,69.435,13,69.464v22.717
	c0,0.829,0.671,1.5,1.5,1.5h52.76c0.021,0.001,0.041,0.007,0.062,0.007c0.007,0,0.015,0,0.022,0c0.018,0,0.036-0.006,0.054-0.007
	h18.1c0.829,0,1.5-0.671,1.5-1.5V69.464C87.001,68.637,86.33,67.965,85.501,67.965z M42.552,14.576
	c-0.434-0.59-0.663-1.268-0.663-1.963c0-1.822,1.484-3.305,3.308-3.305c1.822,0,3.305,1.482,3.305,3.305c0,0.829,0.671,1.5,1.5,1.5
	s1.5-0.671,1.5-1.5c0-1.822,1.484-3.305,3.308-3.305c1.822,0,3.305,1.482,3.305,3.305c0,0.596-0.163,1.168-0.485,1.702l-7.954,9.559
	L42.552,14.576z M34.885,28.853h30.232v17.204H34.885V28.853z M25.961,49.057h48.084v18.908H25.961V49.057z M16.001,90.683V73.792
	l13.311,16.891H16.001z M17.593,70.965h30.379L32.243,89.554L17.593,70.965z M35.218,90.683l14.414-17.035l14.447,17.035H35.218z
	 M67.289,89.828L51.291,70.965h31.04L67.289,89.828z M84.001,90.683H70.444l13.557-17V90.683z"/>
</svg>
