<svg xmlns="http://www.w3.org/2000/svg" viewBox="0 0 64 64"><g id="Layer_28" data-name="Layer 28"><path d="M25.29,22.85,32,29.58c.48-.47,7.41-7.4,7.6-7.6,4.32-4.54-2.18-11-6.73-6.72l-.87.87C26.92,10,19.12,17.76,25.29,22.85Z"/><path d="M31.13,49.53a1,1,0,0,0,1.74,0L46.15,25.81C51.25,15.09,42.89,2,30.85,3c-11,.53-17.74,13.11-13,22.84ZM20.35,11.67c9.33-15,31-2.4,24,13.24L32,47,19.67,25A14.28,14.28,0,0,1,20.35,11.67Z"/><path d="M48.08,40.15c-1.31,0-4.25-1.8-4.89,0A1,1,0,0,0,44,41.32c6.4,1,15.27,4.5,15,8.33C59,54.17,48.15,59,32,59,6.08,59.14-6.79,46.6,20,41.32a1,1,0,0,0-.35-2C9.38,41.18,3,45.13,3,49.65c.71,15,57.31,15,58,0C61,45.7,56.29,42.23,48.08,40.15Z"/></g></svg>