<?xml version="1.0" encoding="UTF-8" standalone="no"?> <svg xmlns="http://www.w3.org/2000/svg" xmlns:xlink="http://www.w3.org/1999/xlink" viewBox="0 0 512 512"><defs><linearGradient id="linear-gradient" x1="72.144" y1="97.894" x2="469.953" y2="495.703" gradientUnits="userSpaceOnUse"><stop offset="0.014" stop-color="#5ab7e8"/><stop offset="0.136" stop-color="#7aa4dc"/><stop offset="0.318" stop-color="#a38ccd"/><stop offset="0.495" stop-color="#c379c1"/><stop offset="0.666" stop-color="#d96bb8"/><stop offset="0.827" stop-color="#e763b3"/><stop offset="0.968" stop-color="#ec60b1"/></linearGradient></defs><g id="gradient"><path d="M455.111,467.111H429.04V192.44a142.171,142.171,0,0,0-.752-14.5c0-.073-.017-.145-.022-.219-.187-1.79-.4-3.577-.657-5.356a56.892,56.892,0,0,0,22.56-.708l21.671-5.06a4,4,0,0,0,1.66-6.96l-17.049-14.3A57.231,57.231,0,0,0,422.6,132.059l1.392-17.9a11.715,11.715,0,0,0-5.18-10.649L403.585,93.362a56.886,56.886,0,0,0,31.794-25.446l11.27-19.19a4,4,0,0,0-3.9-6l-22.11,2.49a56.812,56.812,0,0,0-29.957,12.7,14.674,14.674,0,0,0-3-2.647L365.211,40.293a14.735,14.735,0,0,0-15.049-.8L329.74,50.207l.08-1.029a11.718,11.718,0,0,0-5.18-10.649L308.552,27.81a11.7,11.7,0,0,0-11.927-.625l-16.474,8.637A40.306,40.306,0,0,0,246.54,17.81c-.579,0-1.158.02-1.8.044l-15.26.67a4,4,0,0,0-2.915,6.536l9.7,11.8c.154.188.32.364.478.549a188.138,188.138,0,0,0-33.493,6.418c-5.531,1.59-11.013,3.457-16.363,5.558l-2.49-17.934a4,4,0,0,0-6.779-2.289L161.823,44.83a56.984,56.984,0,0,0-15.539,28.207c-.188.851-.352,1.709-.5,2.571L134.7,68.222A11.7,11.7,0,0,0,122.77,67.6l-21.4,11.222h0a11.711,11.711,0,0,0-6.179,8.918l-2.105,16.875a11.639,11.639,0,0,0,.4,4.735,40.391,40.391,0,0,0-24.595,1.236L54.594,115.95a4,4,0,0,0-.746,7.116l12.868,8.214a40.388,40.388,0,0,0,21.765,6.366q1.655,0,3.3-.137l-2.742,22.006a14.824,14.824,0,0,0,2.178,9.7,40.373,40.373,0,0,0-24.679,6.622L53.8,184.241a4,4,0,0,0,.854,7.1l14.372,5.15a39.922,39.922,0,0,0,19.258,1.974,57.448,57.448,0,0,0-6.421,11.457l-8.59,20.53a4,4,0,0,0,4.67,5.422l5.02-1.269v232.5H56.889A20.913,20.913,0,0,0,36,488a4,4,0,0,0,4,4H152.7a4,4,0,0,0,4-4,20.913,20.913,0,0,0-20.889-20.889H109.74V226.8A56.754,56.754,0,0,0,129.263,211.8a57.535,57.535,0,0,0,4.767-6.587A40.489,40.489,0,0,0,152.416,221.5l13.97,6.16a4,4,0,0,0,5.51-4.564l-3.45-14.869a40.434,40.434,0,0,0-13.722-22.088l7.792-3.444a14.786,14.786,0,0,0,8.742-12.365l1.689-21.756a11.633,11.633,0,0,0,9.812.168l19.49-8.618a11.69,11.69,0,0,0,6.937-9.8l1.788-22.992a11.717,11.717,0,0,0-5.181-10.65L189.707,85.964a11.681,11.681,0,0,0-6.413-1.942,56.9,56.9,0,0,0,2.378-6.546,153.416,153.416,0,0,1,18.671-7.712c21.029,95.688,86.028,178.775,179.11,228.866l-2.015,12.548c-35.138,28.053-59.1,64.674-69.312,106.01L308.813,430.6a4,4,0,0,0,2.734,4.791l18.213,5.459a31.764,31.764,0,0,0,22.141-1.42,24.088,24.088,0,0,1,16.564-1.053l14.311,4.289A31.885,31.885,0,0,0,391.939,444H402.26v23.111H376.193A20.913,20.913,0,0,0,355.3,488a4,4,0,0,0,4,4H472a4,4,0,0,0,4-4A20.913,20.913,0,0,0,455.111,467.111ZM148.061,484H44.635a12.913,12.913,0,0,1,12.254-8.889h78.918A12.913,12.913,0,0,1,148.061,484ZM387.368,161.244,388,176.486A4,4,0,0,0,392,180.32c.056,0,.113,0,.17,0a4,4,0,0,0,3.83-4.163l-.778-18.65a32.429,32.429,0,0,1,1.126,28.94l-3,6.63-3.5-6.37a32.334,32.334,0,0,1-2.477-25.459Zm33.4,22.736q.267,4.226.274,8.46v3.752l-10.78,4.843V188.7ZM410.26,463.147l10.78-4.851v8.814H410.26ZM421.04,407.3l-10.431,4.688V399.651l10.431-4.688Zm0-21.11-10.431,4.688V378.541l10.431-4.688Zm0-21.11-10.431,4.688V357.429l10.431-4.693Zm0-21.119-10.431,4.694V336.32l10.431-4.694Zm0-21.11-10.431,4.694V315.209l10.431-4.693Zm0-21.11-10.78,4.851V294.257l10.78-4.851Zm0-21.109-10.78,4.85V273.147l10.78-4.851Zm0-21.111-10.78,4.851v-12.34l10.78-4.849Zm0-21.11-10.78,4.849V230.916l10.78-4.843Zm0-21.111-10.78,4.843v-12.34l10.78-4.843ZM410.609,420.761l10.431-4.688v12.34l-10.431,4.694ZM391.235,300.625H402.26v8.708H389.836ZM410.26,442.037l10.78-4.851v12.337l-10.78,4.851Zm9.7-266.468-11.435,5.142a3.974,3.974,0,0,0-1.929-.677,40.412,40.412,0,0,0-.429-16.025,56.8,56.8,0,0,0,13.017,6.266Q419.631,172.911,419.965,175.569Zm42.265-14.945-13.88,3.241a48.948,48.948,0,0,1-44.588-11.83l2.11-.933,38.974,10.647a4,4,0,0,0,2.108-7.717l-29.825-8.148a11.662,11.662,0,0,0,4.47-5.863,49.209,49.209,0,0,1,29.711,11.444Zm-46.214-47.088-1.788,22.992a3.7,3.7,0,0,1-2.2,3.1l-17.872,7.9-.011,0-1.606.711a3.7,3.7,0,0,1-3.774-.463L370.45,133.555a3.727,3.727,0,0,1-1.4-3.386l2.1-16.875a3.71,3.71,0,0,1,1.957-2.824l21.4-11.222a3.7,3.7,0,0,1,3.777.2l16.087,10.72A3.711,3.711,0,0,1,416.016,113.536Zm-54.93,16.013a32.609,32.609,0,0,1-19.311,15.307l-6.991,2.01,2.584-6.793a32.414,32.414,0,0,1,10.439-14.106,3.967,3.967,0,0,0,.327-.249,32.189,32.189,0,0,1,7.119-4.092l-11.287,10.426a4,4,0,0,0,5.428,5.877l12-11.088S361.1,129.425,361.086,129.549Zm60.452-76.384L435.7,51.57l-7.221,12.293a48.905,48.905,0,0,1-35.727,23.765l.287-3.689,31.486-19a4,4,0,0,0-4.134-6.849l-26.588,16.05.424-5.437a14.74,14.74,0,0,0-.106-3.189A48.89,48.89,0,0,1,421.538,53.165Zm-67.656-6.584a6.74,6.74,0,0,1,6.89.368l22.484,14.983a6.763,6.763,0,0,1,3,6.148L384.1,95.671l-14.71,7.714a11.691,11.691,0,0,0-6.012,8.017,40.259,40.259,0,0,0-17.308,6c-.154-.1-.309-.2-.459-.316l-25.6-19.891a6.8,6.8,0,0,1-2.565-6.186l.981-7.857L321.1,81.97a11.69,11.69,0,0,0,6.937-9.8l.976-12.546ZM300.34,34.27a3.707,3.707,0,0,1,3.777.2L320.2,45.186a3.713,3.713,0,0,1,1.64,3.372l-1.787,22.993a3.7,3.7,0,0,1-2.2,3.1l-19.49,8.618a3.7,3.7,0,0,1-3.773-.462L276.279,68.577a3.72,3.72,0,0,1-1.4-3.386l2.1-16.875a3.708,3.708,0,0,1,1.957-2.824ZM252.053,70.151a4,4,0,0,0,5.6.815l9.307-6.94-.022.175a11.6,11.6,0,0,0,.1,3.433,32.553,32.553,0,0,1-17.687,9.427L242.2,78.327l3.278-6.48a32.519,32.519,0,0,1,19.628-16.42l-12.238,9.126A4,4,0,0,0,252.053,70.151Zm-6.969-44.3c.491-.017.974-.036,1.456-.036a32.335,32.335,0,0,1,22.508,9.1l-13.987-6.2a4,4,0,0,0-3.242,7.314l17.031,7.547A32.547,32.547,0,0,1,242.44,31.78l-4.616-5.615ZM167.458,50.509l10.11-10.034,1.96,14.117a48.937,48.937,0,0,1-7.723,33.879l-7.656,4.014,12.951-34.6a4,4,0,1,0-7.492-2.8L155.774,92.04l.19-2.45a11.717,11.717,0,0,0-2.835-8.585,50.126,50.126,0,0,1,.967-6.241A49,49,0,0,1,167.458,50.509ZM101.019,105.6l2.1-16.875a3.709,3.709,0,0,1,1.957-2.825l21.4-11.222a3.708,3.708,0,0,1,3.776.2L146.349,85.6a3.713,3.713,0,0,1,1.64,3.372L146.2,111.962a3.7,3.7,0,0,1-2.2,3.1l-19.49,8.619a3.7,3.7,0,0,1-3.773-.464l-18.318-14.232A3.722,3.722,0,0,1,101.019,105.6Zm-30,18.934-6.125-3.91,6.8-2.554a32.382,32.382,0,0,1,25.589,1.2L82.08,117.711a4,4,0,1,0-.82,7.958l18.562,1.91A32.4,32.4,0,0,1,71.021,124.537Zm.7,64.426-6.842-2.451,6.066-4A32.391,32.391,0,0,1,99.7,179.032l-18.538,2.2a4,4,0,0,0,.466,7.973,4.039,4.039,0,0,0,.476-.029l15.187-1.8A32.383,32.383,0,0,1,71.722,188.963Zm30.018,260.56-10.78,4.851V442.037l10.78-4.851Zm0-21.11-10.78,4.851V420.918l10.78-4.845Zm0-21.111-10.78,4.845V399.808l10.78-4.845Zm0-21.11-10.78,4.845V378.7l10.78-4.845Zm0-21.11-10.78,4.845v-12.34l10.78-4.851Zm0-21.119-10.78,4.851V336.477l10.78-4.851Zm0-21.11L90.96,327.7V315.366l10.78-4.85Zm0-21.11-10.78,4.851V294.257l10.78-4.851Zm0-21.109-10.78,4.85V273.147l10.78-4.851ZM90.96,463.147l10.78-4.851v8.814H90.96Zm10.78-203.624-10.78,4.851V252.037l10.78-4.851Zm0-21.11-10.78,4.851V232.588l8.546-2.159q1.127-.283,2.234-.611Zm21.4-31.757A48.768,48.768,0,0,1,97.55,222.672l-13.811,3.49,5.5-13.149a48.744,48.744,0,0,1,18.765-22.366l.052-.034a49.44,49.44,0,0,1,5.392-2.994l4.624,3.59L93,211.426a4,4,0,0,0,5.022,6.228L125.5,195.5a14.727,14.727,0,0,0,3.793.5c.229,0,.458-.025.687-.035l0,.007A48.918,48.918,0,0,1,123.138,206.656Zm37.515,3.378,1.643,7.079-6.649-2.932a32.5,32.5,0,0,1-17.106-17.844c.047-.117.087-.238.133-.356l9.3,11.195a4,4,0,0,0,6.154-5.112l-9.516-11.455,1.654-.731A32.434,32.434,0,0,1,160.653,210.034Zm-1.38-34.653-27.24,12.04a6.748,6.748,0,0,1-6.89-.85L99.55,166.7a6.826,6.826,0,0,1-2.571-6.192l2.941-23.595a6.606,6.606,0,0,1,.206-.979,40.42,40.42,0,0,0,13.816-7.316,3.868,3.868,0,0,0,.308-.306l1.583,1.23a11.721,11.721,0,0,0,1.61,1.05l-2.068.914a9.435,9.435,0,0,0-5.241,11.131l3.408,12.1a9.347,9.347,0,0,0,9.5,6.833l10.887-.532a9.373,9.373,0,0,0,8.915-8.831l.23-3.953a9.435,9.435,0,0,0-8.645-9.906,4,4,0,1,0-.62,7.975,1.4,1.4,0,0,1,1.279,1.466l-.23,3.952a1.387,1.387,0,0,1-1.319,1.306l-10.888.533a1.375,1.375,0,0,1-1.4-1.011l-3.408-12.1a1.4,1.4,0,0,1,.775-1.647l14.678-6.49a1.38,1.38,0,0,1,1.532.277l17.174,16.786a1.387,1.387,0,0,1,.067,1.917l-18.184,20.406a1.4,1.4,0,0,1-1.715.287l-22.794-12.778a4,4,0,1,0-3.912,6.978l22.794,12.779a9.316,9.316,0,0,0,4.563,1.185,9.427,9.427,0,0,0,7.038-3.129l18.182-20.406a9.375,9.375,0,0,0-.447-12.961l-17.175-16.786a9.447,9.447,0,0,0-1.17-.966l8-3.537c.315-.139.608-.312.906-.477l-.056.451a11.76,11.76,0,0,0,4.434,10.693l12.831,9.969-2.073,26.69A6.788,6.788,0,0,1,159.273,175.381Zm26-82.759,16.087,10.718A3.713,3.713,0,0,1,203,106.712l-1.789,22.993a3.7,3.7,0,0,1-2.2,3.1l-19.49,8.618a3.706,3.706,0,0,1-3.774-.463l-18.317-14.232a3.723,3.723,0,0,1-1.4-3.386l2.1-16.875a3.712,3.712,0,0,1,1.957-2.824l21.4-11.222a3.707,3.707,0,0,1,3.777.2Zm2.59-35c4.331-1.762,8.756-3.368,13.24-4.785.493,3.041,1.032,6.056,1.609,9.027-5.132,1.7-10.17,3.663-15.076,5.852A56.935,56.935,0,0,0,187.861,57.624Zm23.386,6.143c-.893-4.3-1.7-8.718-2.4-13.179a181.437,181.437,0,0,1,36.183-5.817,40.724,40.724,0,0,0,11.713,5.365,40.519,40.519,0,0,0-18.4,18.1l-6.89,13.62a4,4,0,0,0,4.266,5.745l15.032-2.661a40.576,40.576,0,0,0,20.457-10.19c.057.046.106.1.165.146l18.317,14.232a11.7,11.7,0,0,0,11.917,1.462l8.292-3.667-.386,3.094a14.836,14.836,0,0,0,5.595,13.494l24.46,19a40.514,40.514,0,0,0-9.674,14.715l-5.431,14.27a4,4,0,0,0,4.844,5.266l14.681-4.22a40.65,40.65,0,0,0,20.429-13.673,11.572,11.572,0,0,0,1.127,1L382.2,152.815a40.377,40.377,0,0,0,.634,37.743l7.36,13.38a4,4,0,0,0,3.5,2.072c.052,0,.105,0,.157,0a4,4,0,0,0,3.488-2.35l4.915-10.876v77.853A418.981,418.981,0,0,1,388.6,215.31a4,4,0,1,0-7.88,1.38,426.946,426.946,0,0,0,15.49,61.226l4.652,14.709h-1.029A568.31,568.31,0,0,1,355.92,161.4a4,4,0,0,0-7.841,1.588A574.548,574.548,0,0,0,384.19,277.525a259.34,259.34,0,0,1-36.925-50.582,237.567,237.567,0,0,1-30.389-107.1,4,4,0,1,0-7.994.314,245.5,245.5,0,0,0,31.393,110.678A265.622,265.622,0,0,0,370.01,273.62l-39.447-38.194C291.341,197.444,269.74,148.013,269.74,96.24a4,4,0,0,0-8,0c0,53.959,22.465,105.43,63.258,144.933l36.186,35.036C282.834,225.674,228.865,149.746,211.247,63.767ZM385.072,435l-14.31-4.29a32.038,32.038,0,0,0-9.189-1.349,31.591,31.591,0,0,0-12.952,2.769,24.083,24.083,0,0,1-16.564,1.054l-14.564-4.365,2.4-9.712c9.8-39.653,32.831-74.816,66.642-101.773h3.4l-14.449,22.736a242.389,242.389,0,0,0-29.08,65.082,4,4,0,1,0,7.708,2.142,234.408,234.408,0,0,1,28.124-62.933l17.176-27.027h1.036l-2.328,5.235a163.3,163.3,0,0,0-14.3,66.765,4,4,0,1,0,8,0,154.722,154.722,0,0,1,10.434-55.864V436H391.939A23.92,23.92,0,0,1,385.072,435Zm-21.133,49a12.913,12.913,0,0,1,12.254-8.889h78.918A12.913,12.913,0,0,1,467.365,484ZM106.054,103.968a4,4,0,0,1,5.311-1.948l13.777,6.382,10.7-11.15-9.539-10.541L118.371,91.3l1.386,3.594,7.972-.389a4,4,0,0,1,.389,7.99l-7.971.389a7.992,7.992,0,0,1-7.854-5.11l-1.387-3.595a7.964,7.964,0,0,1,3.457-9.8l7.937-4.592a8.041,8.041,0,0,1,9.939,1.557l9.539,10.541a8.027,8.027,0,0,1-.161,10.908l-10.7,11.15a8,8,0,0,1-9.134,1.719L108,109.279A4,4,0,0,1,106.054,103.968Zm81.194-4.883,9.539,10.541a8.027,8.027,0,0,1-.161,10.909l-10.7,11.149a8,8,0,0,1-9.133,1.719l-13.777-6.382a4,4,0,1,1,3.363-7.259l13.776,6.382L190.855,115l-9.539-10.542-7.936,4.592,1.387,3.594,7.971-.389a4,4,0,1,1,.39,7.99l-7.971.39a7.987,7.987,0,0,1-7.855-5.112l-1.386-3.593a7.961,7.961,0,0,1,3.458-9.8l7.935-4.592A8.042,8.042,0,0,1,187.248,99.085Zm213.017,6.824L409.8,116.45a8.026,8.026,0,0,1-.161,10.908l-10.7,11.15a8,8,0,0,1-9.134,1.719l-13.777-6.382a4,4,0,0,1,3.363-7.259l13.776,6.382,10.7-11.15-9.539-10.541-7.936,4.592,1.386,3.594,7.971-.389a4,4,0,1,1,.391,7.99l-7.971.39a7.987,7.987,0,0,1-7.855-5.111l-1.386-3.595a7.96,7.96,0,0,1,3.458-9.8l7.935-4.591A8.038,8.038,0,0,1,400.265,105.909ZM372.53,81.815a1.387,1.387,0,0,0-.067-1.917L355.289,63.113a1.382,1.382,0,0,0-1.533-.278l-14.677,6.491a1.4,1.4,0,0,0-.775,1.646l3.407,12.105a1.379,1.379,0,0,0,1.4,1.01L354,83.555a1.385,1.385,0,0,0,1.318-1.306l.231-3.953a1.4,1.4,0,0,0-1.28-1.465,4,4,0,0,1,.621-7.976,9.437,9.437,0,0,1,8.645,9.907l-.23,3.953a9.371,9.371,0,0,1-8.914,8.83l-10.888.533a9.35,9.35,0,0,1-9.5-6.833L330.6,73.14a9.434,9.434,0,0,1,5.24-11.131l14.677-6.49a9.344,9.344,0,0,1,10.359,1.873l17.175,16.785a9.375,9.375,0,0,1,.447,12.961L360.32,107.544a9.427,9.427,0,0,1-7.037,3.129,9.32,9.32,0,0,1-4.564-1.185l-22.8-12.779a4,4,0,0,1,3.912-6.979l22.795,12.779a1.4,1.4,0,0,0,1.716-.287ZM279.91,63.556a4,4,0,0,1,5.311-1.948L299,67.99l10.7-11.15L300.162,46.3l-7.936,4.592,1.386,3.594,7.971-.389a4,4,0,1,1,.391,7.99l-7.971.39a7.991,7.991,0,0,1-7.855-5.111l-1.386-3.594a7.963,7.963,0,0,1,3.458-9.8l7.935-4.591a8.042,8.042,0,0,1,9.939,1.556l9.539,10.541a8.026,8.026,0,0,1-.161,10.909l-10.7,11.149a8,8,0,0,1-9.134,1.719l-13.777-6.382A4,4,0,0,1,279.91,63.556Z" style="fill:url(#linear-gradient)"/></g></svg>
