<?xml version="1.0" encoding="utf-8"?>
<!-- Generator: Adobe Illustrator 18.0.0, SVG Export Plug-In . SVG Version: 6.00 Build 0)  -->
<!DOCTYPE svg PUBLIC "-//W3C//DTD SVG 1.1//EN" "http://www.w3.org/Graphics/SVG/1.1/DTD/svg11.dtd">
<svg version="1.1" id="Layer_1" xmlns="http://www.w3.org/2000/svg" xmlns:xlink="http://www.w3.org/1999/xlink" x="0px" y="0px"
	 viewBox="0 0 61.5 62" enable-background="new 0 0 61.5 62" xml:space="preserve">
<g>
	<g>
		<defs>
			<rect id="SVGID_1_" x="5.8" y="2.3" width="52.4" height="59.2"/>
		</defs>
		<clipPath id="SVGID_2_">
			<use xlink:href="#SVGID_1_"  overflow="visible"/>
		</clipPath>
		<path clip-path="url(#SVGID_2_)" d="M56.1,56.6h-1.2V46c0-1.5-1.2-2.7-2.7-2.7h-1.9c0-1.8-1.5-3.3-3.4-3.3H35v-1.4
			c0-0.5-0.4-0.9-0.9-0.9c-0.5,0-0.9,0.4-0.9,0.9v1.4h-5c-0.5,0-0.9,0.4-0.9,0.9c0,0.5,0.4,0.9,0.9,0.9H47c0.9,0,1.6,0.7,1.7,1.6
			H20.1c0-0.9,0.8-1.6,1.7-1.6h2.5c0.5,0,0.9-0.4,0.9-0.9c0-0.5-0.4-0.9-0.9-0.9h-2.5c-1.8,0-3.3,1.5-3.4,3.3h-1.9
			c-1.5,0-2.7,1.2-2.7,2.7V50c-0.8-0.2-1.3-0.5-1.6-1.2C12,48,11,41.6,11.4,39.6c0.5-2.2,2.2-4.2,4.8-5.6c2.8-1.5,6.1-2.6,8.8-2.9
			c8.5-1.1,17.1,1.4,23.6,6.9l0.2,0.7c0.3,1.3,1.5,2.2,2.8,2.2c0.2,0,0.4,0,0.7-0.1l0,0c0.8-0.2,1.4-0.6,1.8-1.3
			c0.4-0.7,0.5-1.5,0.3-2.2L46.5,4.6c-0.4-1.5-1.9-2.5-3.5-2.1l0,0c-0.8,0.2-1.4,0.6-1.8,1.3c-0.4,0.7-0.5,1.5-0.3,2.2L41,6.8
			c-1.5,3.6-3.6,6.8-6.3,9.6c-2.7,2.9-6,5.1-9.6,6.7c-1.1,0.5-2.2,0.8-3.3,1.2c-1,0.3-2,0.6-2.9,1c-1.9,0.8-4.3,1.8-6.5,3.3
			C9.2,31,6.9,34,6.2,37.2c-0.5,2-0.4,4.2,0.1,6.9c0,0.1,1.2,6,2.1,7.3c0.8,1.3,2.1,2.2,3.6,2.7c0.4,0.1,0.7,0.2,1.1,0.2
			c0.2,0,0.4,0,0.6,0l0.1,0h0c0,0,0,0,0,0l0.1,0v2.4h-1.2c-1.1,0-2,0.9-2,2v0.8c0,1.1,0.9,2,2,2h43.5c1.1,0,2-0.9,2-2v-0.8
			C58.1,57.5,57.2,56.6,56.1,56.6L56.1,56.6z M42.6,4.7c0.2-0.3,0.4-0.5,0.8-0.5l0,0c0.1,0,0.2,0,0.3,0c0.5,0,1,0.4,1.2,0.9
			l8.1,32.6c0.1,0.3,0,0.6-0.1,0.9C52.6,38.8,52.3,39,52,39l0,0c-0.6,0.1-1.3-0.2-1.4-0.9l-0.2-1v0L42.7,6.7c0,0,0,0,0,0l-0.3-1.1
			C42.4,5.3,42.4,5,42.6,4.7L42.6,4.7z M13.8,52.5l-0.2,0l-0.1,0c-0.1,0-0.3,0-0.4,0c-0.3,0-0.5-0.1-0.8-0.2c-1-0.3-2-1-2.6-1.9
			c-0.5-0.7-1.5-4.8-1.8-6.7c-0.5-2.4-0.5-4.4-0.1-6.1c0.7-2.7,2.6-5.4,5.5-7.4c2-1.4,4.4-2.4,6.2-3.2c0.9-0.4,1.9-0.7,2.8-1
			c1.2-0.4,2.4-0.8,3.5-1.3c3.8-1.7,7.2-4.1,10.1-7.1c2.3-2.4,4.2-5.1,5.7-8.1L48,35.2c-6.7-4.8-15-6.9-23.2-5.9
			c-2.9,0.4-6.4,1.5-9.4,3.1c-3.1,1.6-5.1,4.1-5.7,6.8c-0.5,2.4,0.5,9.2,0.9,10.2c0.7,1.7,2.1,2.1,3.2,2.3V52.5z M56.1,59.7H12.6
			c-0.1,0-0.3-0.1-0.3-0.3v-0.8c0-0.1,0.1-0.3,0.3-0.3h29.7c0.5,0,0.9-0.4,0.9-0.9c0-0.5-0.4-0.9-0.9-0.9H15.6V46
			c0-0.5,0.4-0.9,0.9-0.9h35.7c0.5,0,0.9,0.4,0.9,0.9v10.6h-6.9c-0.5,0-0.9,0.4-0.9,0.9c0,0.5,0.4,0.9,0.9,0.9h9.8
			c0.1,0,0.3,0.1,0.3,0.3v0.8C56.4,59.6,56.3,59.7,56.1,59.7L56.1,59.7z M56.1,59.7"/>
	</g>
	<path d="M36,46.8c-0.7,0-1.4,0.2-1.9,0.6c-0.5-0.4-1.2-0.6-1.9-0.6c-1.8,0-3.3,1.5-3.3,3.3c0,3.6,4.7,5.4,4.9,5.5
		c0.1,0,0.2,0.1,0.3,0.1c0.1,0,0.2,0,0.3-0.1c0.2-0.1,4.9-1.9,4.9-5.5C39.3,48.2,37.8,46.8,36,46.8L36,46.8z M34.1,53.8
		c-0.9-0.4-3.5-1.8-3.5-3.8c0-0.9,0.7-1.5,1.5-1.5c0.5,0,0.9,0.2,1.2,0.6c0.2,0.2,0.4,0.3,0.7,0.3c0.3,0,0.5-0.1,0.7-0.3
		c0.3-0.4,0.7-0.6,1.2-0.6c0.9,0,1.5,0.7,1.5,1.5C37.6,51.9,35.3,53.3,34.1,53.8L34.1,53.8z M34.1,53.8"/>
</g>
</svg>
